<svg id="visual" viewBox="0 0 900 600" width="900" height="600" xmlns="http://www.w3.org/2000/svg" xmlns:xlink="http://www.w3.org/1999/xlink" version="1.1"><g transform="translate(457.5203030223888 285.002628180693)"><path d="M104.8 -124.4C141.9 -93.8 182.2 -66.5 205.7 -23C229.2 20.5 235.8 80.3 214.4 129.7C192.9 179.2 143.3 218.3 94.3 218.5C45.4 218.6 -3 179.8 -61.9 161.9C-120.8 144 -190.3 147 -221.6 116.5C-253 85.9 -246.1 21.9 -219.3 -22.8C-192.5 -67.5 -145.8 -92.7 -105.9 -122.8C-66 -153 -33 -188 0.4 -188.5C33.9 -189 67.7 -155 104.8 -124.4" fill="#BB004B"></path></g></svg>