<svg id="visual" viewBox="0 0 1920 1080" width="1920" height="1080" xmlns="http://www.w3.org/2000/svg" xmlns:xlink="http://www.w3.org/1999/xlink" version="1.1"><path d="M0 709L45.7 726.3C91.3 743.7 182.7 778.3 274.2 818.7C365.7 859 457.3 905 548.8 937.3C640.3 969.7 731.7 988.3 823 973.3C914.3 958.3 1005.7 909.7 1097 897.2C1188.3 884.7 1279.7 908.3 1371.2 879C1462.7 849.7 1554.3 767.3 1645.8 767.2C1737.3 767 1828.7 849 1874.3 890L1920 931L1920 1081L1874.3 1081C1828.7 1081 1737.3 1081 1645.8 1081C1554.3 1081 1462.7 1081 1371.2 1081C1279.7 1081 1188.3 1081 1097 1081C1005.7 1081 914.3 1081 823 1081C731.7 1081 640.3 1081 548.8 1081C457.3 1081 365.7 1081 274.2 1081C182.7 1081 91.3 1081 45.7 1081L0 1081Z" fill="#545454" stroke-linecap="round" stroke-linejoin="miter"></path></svg>